<svg width="25" height="24" viewBox="0 0 25 24" fill="none" xmlns="http://www.w3.org/2000/svg">
<path fill-rule="evenodd" clip-rule="evenodd" d="M12.5996 2.25C7.21483 2.25 2.84961 6.61522 2.84961 12C2.84961 17.3848 7.21483 21.75 12.5996 21.75C17.9844 21.75 22.3496 17.3848 22.3496 12C22.3496 6.61522 17.9844 2.25 12.5996 2.25ZM13.3496 6C13.3496 5.58579 13.0138 5.25 12.5996 5.25C12.1854 5.25 11.8496 5.58579 11.8496 6V12C11.8496 12.4142 12.1854 12.75 12.5996 12.75H17.0996C17.5138 12.75 17.8496 12.4142 17.8496 12C17.8496 11.5858 17.5138 11.25 17.0996 11.25H13.3496V6Z" fill="#999999"/>
</svg>
