<svg width="18" height="16" viewBox="0 0 18 16" fill="none" xmlns="http://www.w3.org/2000/svg">
<path d="M8.56663 0.915567C8.72675 0.530586 9.27212 0.530586 9.43224 0.915567L11.2039 5.17511C11.2714 5.33741 11.424 5.4483 11.5992 5.46235L16.1978 5.83101C16.6134 5.86433 16.7819 6.38301 16.4653 6.65426L12.9617 9.65547C12.8282 9.76982 12.7699 9.94925 12.8106 10.1202L13.8811 14.6076C13.9778 15.0132 13.5366 15.3338 13.1808 15.1164L9.24377 12.7117C9.09376 12.6201 8.9051 12.6201 8.7551 12.7117L4.8181 15.1164C4.46228 15.3338 4.02106 15.0132 4.11781 14.6076L5.18822 10.1202C5.229 9.94925 5.1707 9.76982 5.03721 9.65547L1.53361 6.65426C1.21695 6.38301 1.38548 5.86433 1.80109 5.83101L6.39963 5.46235C6.57485 5.4483 6.72748 5.33741 6.79498 5.17511L8.56663 0.915567Z" stroke="#999999" stroke-linecap="round" stroke-linejoin="round"/>
</svg>
